<svg width="97" height="36" viewBox="0 0 97 36" fill="none" xmlns="http://www.w3.org/2000/svg">
<path d="M36 8.25H23.1919C22.2805 8.25 21.4186 8.66427 20.8493 9.37592L19.6507 10.8741C19.0814 11.5857 18.2195 12 17.3081 12H6L3 15.75H15.8081C16.7195 15.75 17.5814 15.3357 18.1507 14.6241L19.3493 13.1259C19.9186 12.4143 20.7805 12 21.6919 12H33L36 8.25Z" fill="black"/>
<path d="M34.5 14.25H21.6919C20.7805 14.25 19.9186 14.6643 19.3493 15.3759L18.1507 16.8741C17.5814 17.5857 16.7195 18 15.8081 18H4.5L1.5 21.75H14.3081C15.2195 21.75 16.0814 21.3357 16.6507 20.6241L17.8493 19.1259C18.4186 18.4143 19.2805 18 20.1919 18H31.5L34.5 14.25Z" fill="black"/>
<path d="M33 20.25H20.1919C19.2805 20.25 18.4186 20.6643 17.8493 21.3759L16.6507 22.8741C16.0814 23.5857 15.2195 24 14.3081 24H3L0 27.75H12.8081C13.7195 27.75 14.5814 27.3357 15.1507 26.6241L16.3493 25.1259C16.9186 24.4143 17.7805 24 18.6919 24H30L33 20.25Z" fill="black"/>
<path d="M50.4 10C51.4 10 52.28 10.2 53.04 10.58C53.8 10.96 54.4 11.5 54.82 12.2C55.24 12.92 55.46 13.74 55.46 14.66C55.46 15.6 55.24 16.42 54.82 17.12C54.4 17.82 53.8 18.36 53.04 18.74C52.28 19.12 51.4 19.3 50.4 19.3H47.7V24H44.7V10H50.4ZM47.7 16.8H50.12C50.82 16.8 51.38 16.62 51.8 16.22C52.2 15.84 52.42 15.32 52.42 14.66C52.42 14 52.2 13.48 51.8 13.08C51.38 12.7 50.82 12.5 50.12 12.5H47.7V16.8ZM56.9214 10H59.7414V24H56.9214V10ZM71.8266 21.62V24H70.3866C69.0866 24 68.4466 23.44 68.4866 22.32C68.1066 22.92 67.6466 23.36 67.1066 23.66C66.5466 23.98 65.8866 24.12 65.1266 24.12C63.9666 24.12 63.0466 23.86 62.3466 23.34C61.6466 22.82 61.3066 22.06 61.3066 21.1C61.3066 20.02 61.7066 19.18 62.5066 18.58C63.3066 17.98 64.4866 17.68 66.0266 17.68H68.0666V17.18C68.0666 16.72 67.8866 16.36 67.5466 16.08C67.1866 15.8 66.7266 15.66 66.1466 15.66C65.6266 15.66 65.1866 15.78 64.8666 16C64.5266 16.24 64.3266 16.54 64.2666 16.92H61.5466C61.6266 15.88 62.1066 15.06 62.9466 14.48C63.7866 13.9 64.8866 13.6 66.2866 13.6C67.7266 13.6 68.8466 13.92 69.6466 14.56C70.4466 15.2 70.8466 16.14 70.8466 17.34V20.96C70.8466 21.22 70.8866 21.4 71.0066 21.48C71.1066 21.58 71.2666 21.62 71.5066 21.62H71.8266ZM68.0666 19.56H66.0066C65.4066 19.56 64.9466 19.68 64.6266 19.92C64.3066 20.16 64.1466 20.48 64.1466 20.9C64.1466 21.26 64.2666 21.56 64.5466 21.76C64.8266 21.98 65.1866 22.08 65.6666 22.08C66.3866 22.08 66.9666 21.88 67.4066 21.46C67.8266 21.04 68.0466 20.48 68.0666 19.76V19.56ZM83.1975 13.72V23.7C83.1975 25.06 82.7375 26.12 81.8575 26.92C80.9575 27.72 79.5775 28.12 77.6975 28.12C76.2375 28.12 75.0575 27.8 74.1775 27.16C73.2775 26.52 72.7975 25.62 72.7375 24.44H75.5775C75.6975 24.94 75.9575 25.32 76.3575 25.58C76.7575 25.86 77.2775 25.98 77.9175 25.98C78.7175 25.98 79.3375 25.78 79.7775 25.38C80.2175 24.98 80.4375 24.4 80.4375 23.6V22.52C79.6775 23.48 78.6175 23.94 77.2575 23.94C76.3375 23.94 75.5375 23.74 74.8175 23.3C74.0975 22.88 73.5175 22.28 73.1175 21.5C72.7175 20.72 72.5175 19.8 72.5175 18.76C72.5175 17.74 72.7175 16.84 73.1175 16.04C73.5175 15.26 74.0975 14.66 74.8175 14.22C75.5375 13.8 76.3575 13.58 77.2775 13.58C78.6175 13.58 79.6775 14.1 80.4775 15.14L80.7175 13.72H83.1975ZM79.7375 20.88C80.1775 20.36 80.4175 19.66 80.4175 18.8C80.4175 17.94 80.1775 17.24 79.7375 16.68C79.2775 16.14 78.6775 15.86 77.9175 15.86C77.1575 15.86 76.5375 16.14 76.0775 16.68C75.6175 17.22 75.3975 17.92 75.3975 18.78C75.3975 19.66 75.6175 20.36 76.0775 20.88C76.5375 21.42 77.1575 21.68 77.9175 21.68C78.6775 21.68 79.2775 21.42 79.7375 20.88ZM87.3236 23.48C86.5036 23.04 85.8636 22.42 85.4236 21.62C84.9836 20.82 84.7636 19.9 84.7636 18.86C84.7636 17.82 84.9836 16.9 85.4236 16.1C85.8636 15.3 86.5036 14.7 87.3236 14.26C88.1436 13.82 89.1036 13.6 90.1836 13.6C91.2636 13.6 92.2036 13.82 93.0236 14.26C93.8436 14.7 94.4836 15.3 94.9236 16.1C95.3636 16.9 95.6036 17.82 95.6036 18.86C95.6036 19.92 95.3636 20.84 94.9236 21.64C94.4836 22.44 93.8436 23.04 93.0236 23.48C92.2036 23.92 91.2636 24.12 90.1836 24.12C89.1036 24.12 88.1436 23.92 87.3236 23.48ZM92.0436 21C92.5036 20.46 92.7436 19.74 92.7436 18.86C92.7436 17.98 92.5036 17.28 92.0436 16.72C91.5836 16.18 90.9636 15.9 90.1836 15.9C89.4036 15.9 88.7836 16.18 88.3236 16.72C87.8636 17.28 87.6436 17.98 87.6436 18.86C87.6436 19.74 87.8636 20.46 88.3236 21C88.7836 21.56 89.4036 21.82 90.1836 21.82C90.9636 21.82 91.5836 21.56 92.0436 21Z" fill="black"/>
</svg>
