<svg width="213" height="57" viewBox="0 0 213 57" fill="none" xmlns="http://www.w3.org/2000/svg">
<path d="M30.9465 35.3228L24.557 3.02276C24.2473 1.45725 25.4512 0 27.0541 0H36.2C37.1798 0 38.0726 0.559862 38.4956 1.43956L54.0282 33.7396C54.8368 35.4211 53.6054 37.3667 51.7326 37.3667H33.4437C32.2276 37.3667 31.1815 36.5104 30.9465 35.3228Z" fill="#3CD6FF"/>
<path d="M23.3342 21.6772L29.7238 53.9772C30.0334 55.5428 28.8296 57 27.2266 57H18.0808C17.101 57 16.2082 56.4401 15.7851 55.5604L0.252566 23.2604C-0.55605 21.5789 0.675336 19.6333 2.5482 19.6333L20.8371 19.6333C22.0531 19.6333 23.0993 20.4896 23.3342 21.6772Z" fill="#3CD6FF"/>
<path d="M78.2676 55.2045V16.283H84.379L84.8117 20.3205C85.6049 18.7773 86.8307 17.5929 88.4893 16.7675C90.1478 15.9062 91.9686 15.4755 93.9516 15.4755C96.5116 15.4755 98.7109 16.0497 100.55 17.1982C102.425 18.3466 103.885 19.9437 104.93 21.9893C105.976 24.035 106.499 26.4575 106.499 29.2568C106.499 32.0203 106.012 34.4787 105.039 36.632C104.065 38.7853 102.641 40.4901 100.766 41.7462C98.9272 42.9664 96.6738 43.5765 94.0057 43.5765C92.0227 43.5765 90.2019 43.1997 88.5434 42.446C86.9209 41.6923 85.695 40.6516 84.8657 39.3237V55.2045H78.2676ZM84.9198 29.5798C84.9198 31.1589 85.2263 32.5586 85.8392 33.7788C86.4522 34.9991 87.3175 35.9681 88.4352 36.6858C89.589 37.3677 90.923 37.7087 92.4373 37.7087C93.9877 37.7087 95.3217 37.3677 96.4394 36.6858C97.5572 35.9681 98.4045 34.9991 98.9813 33.7788C99.5582 32.5586 99.8467 31.1589 99.8467 29.5798C99.8467 28.0007 99.5582 26.6011 98.9813 25.3808C98.4045 24.1606 97.5572 23.2096 96.4394 22.5277C95.3217 21.8099 93.9877 21.451 92.4373 21.451C90.923 21.451 89.589 21.7919 88.4352 22.4738C87.3175 23.1557 86.4522 24.1068 85.8392 25.327C85.2263 26.5472 84.9198 27.9648 84.9198 29.5798Z" fill="#001838"/>
<path d="M117.864 42.8767H111.32V22.8507V2.82467H117.864V42.8767Z" fill="#001838"/>
<path d="M132.194 43.5765C129.382 43.5765 127.147 42.8228 125.488 41.3155C123.866 39.7723 123.054 37.7625 123.054 35.2862C123.054 32.8457 123.902 30.9077 125.596 29.4722C127.327 28.0007 129.779 27.1394 132.952 26.8882L140.956 26.2422V25.65C140.956 24.4298 140.722 23.4608 140.253 22.743C139.82 21.9893 139.189 21.451 138.36 21.128C137.531 20.7691 136.557 20.5897 135.439 20.5897C133.492 20.5897 131.996 20.9844 130.951 21.774C129.905 22.5277 129.382 23.6043 129.382 25.004H123.758C123.758 23.066 124.244 21.3972 125.218 19.9975C126.227 18.5619 127.633 17.4494 129.436 16.6598C131.275 15.8703 133.384 15.4755 135.764 15.4755C138.18 15.4755 140.253 15.9062 141.983 16.7675C143.714 17.5929 145.048 18.8491 145.986 20.5358C146.923 22.1867 147.392 24.2503 147.392 26.7267V42.8767H141.605L141.118 38.9468C140.541 40.3106 139.424 41.4232 137.765 42.2845C136.143 43.1458 134.286 43.5765 132.194 43.5765ZM134.304 38.6238C136.359 38.6238 137.981 38.0496 139.171 36.9012C140.397 35.7527 141.01 34.1557 141.01 32.11V30.7103L135.439 31.141C133.384 31.3204 131.924 31.7511 131.059 32.433C130.193 33.079 129.761 33.9403 129.761 35.017C129.761 36.2013 130.157 37.0986 130.951 37.7087C131.744 38.3188 132.861 38.6238 134.304 38.6238Z" fill="#001838"/>
<path d="M151.818 28.9877C151.818 26.4037 152.341 24.1068 153.387 22.097C154.469 20.0513 155.965 18.4363 157.876 17.252C159.787 16.0677 162.004 15.4755 164.528 15.4755C166.799 15.4755 168.746 15.9779 170.369 16.9828C171.991 17.9518 173.127 19.3156 173.776 21.0742L173.073 21.6663L173.614 16.283H179.725V41.5308C179.725 44.4737 179.148 47.0218 177.995 49.1752C176.877 51.3644 175.272 53.0332 173.181 54.1817C171.126 55.366 168.638 55.9582 165.718 55.9582C161.896 55.9582 158.759 54.9353 156.307 52.8897C153.856 50.844 152.413 48.0447 151.981 44.4917H158.579C158.795 46.2143 159.516 47.5602 160.742 48.5292C162.004 49.4982 163.663 49.9827 165.718 49.9827C167.989 49.9827 169.792 49.3187 171.126 47.9908C172.496 46.6988 173.181 44.9403 173.181 42.7152V36.0937L173.938 36.7935C173.289 38.4803 172.099 39.8261 170.369 40.831C168.638 41.8359 166.637 42.3383 164.366 42.3383C161.842 42.3383 159.642 41.7641 157.768 40.6157C155.893 39.4672 154.432 37.8881 153.387 35.8783C152.341 33.8686 151.818 31.5717 151.818 28.9877ZM158.471 28.8262C158.471 30.3335 158.759 31.6793 159.336 32.8637C159.949 34.0121 160.796 34.9273 161.878 35.6092C162.96 36.2911 164.221 36.632 165.664 36.632C167.178 36.632 168.476 36.309 169.558 35.663C170.675 34.9811 171.523 34.0659 172.099 32.9175C172.712 31.7332 173.019 30.3694 173.019 28.8262C173.019 27.2829 172.73 25.9551 172.154 24.8425C171.577 23.6941 170.729 22.7968 169.612 22.1508C168.53 21.5048 167.214 21.1818 165.664 21.1818C164.185 21.1818 162.905 21.5228 161.824 22.2047C160.742 22.8507 159.913 23.7479 159.336 24.8963C158.759 26.0448 158.471 27.3547 158.471 28.8262Z" fill="#001838"/>
<path d="M184.444 29.526C184.444 26.7626 185.057 24.3401 186.283 22.2585C187.509 20.1411 189.204 18.4902 191.367 17.3058C193.53 16.1215 195.982 15.5293 198.722 15.5293C201.498 15.5293 203.95 16.1215 206.077 17.3058C208.241 18.4902 209.935 20.1411 211.161 22.2585C212.387 24.3401 213 26.7626 213 29.526C213 32.2894 212.387 34.7299 211.161 36.8473C209.935 38.9289 208.241 40.5618 206.077 41.7462C203.95 42.9305 201.498 43.5227 198.722 43.5227C195.982 43.5227 193.53 42.9305 191.367 41.7462C189.204 40.5618 187.509 38.9289 186.283 36.8473C185.057 34.7299 184.444 32.2894 184.444 29.526ZM191.042 29.526C191.042 31.141 191.367 32.5586 192.016 33.7788C192.701 34.9991 193.602 35.9501 194.72 36.632C195.874 37.3139 197.208 37.6548 198.722 37.6548C200.236 37.6548 201.57 37.3139 202.724 36.632C203.878 35.9501 204.779 34.9991 205.428 33.7788C206.077 32.5586 206.402 31.141 206.402 29.526C206.402 27.8751 206.077 26.4575 205.428 25.2732C204.779 24.0529 203.878 23.1019 202.724 22.42C201.57 21.7381 200.236 21.3972 198.722 21.3972C197.208 21.3972 195.874 21.7381 194.72 22.42C193.602 23.1019 192.701 24.0529 192.016 25.2732C191.367 26.4575 191.042 27.8751 191.042 29.526Z" fill="#001838"/>
</svg>
