<svg width="109" height="115" viewBox="0 0 109 115" fill="none" xmlns="http://www.w3.org/2000/svg">
<path d="M62.143 71.2652L49.3124 6.09856C48.6905 2.94006 51.1079 0 54.3268 0H72.6924C74.6599 0 76.4528 1.12955 77.3022 2.90437L108.493 68.071C110.117 71.4636 107.644 75.3889 103.883 75.3889H67.1575C64.7156 75.3889 62.6148 73.6613 62.143 71.2652Z" fill="#131A24"/>
<path d="M46.857 43.7348L59.6876 108.901C60.3095 112.06 57.8921 115 54.6732 115H36.3076C34.3401 115 32.5472 113.87 31.6978 112.096L0.507171 46.929C-1.11659 43.5364 1.35613 39.6111 5.11699 39.6111L41.8425 39.6111C44.2844 39.6111 46.3852 41.3387 46.857 43.7348Z" fill="#131A24"/>
</svg>
