<svg width="20" height="20" viewBox="0 0 20 20" fill="none" xmlns="http://www.w3.org/2000/svg">
<g clip-path="url(#clip0_219_12439)">
<path d="M10 18C14.4183 18 18 14.4183 18 10C18 5.58172 14.4183 2 10 2C5.58172 2 2 5.58172 2 10C2 14.4183 5.58172 18 10 18Z" fill="#F0F0F0"/>
<path d="M10.0002 13.478C11.9212 13.478 13.4785 11.9207 13.4785 9.99973C13.4785 8.07875 11.9212 6.52148 10.0002 6.52148C8.07924 6.52148 6.52197 8.07875 6.52197 9.99973C6.52197 11.9207 8.07924 13.478 10.0002 13.478Z" fill="#D80027"/>
</g>
<rect x="1.25" y="1.25" width="17.5" height="17.5" rx="8.75" stroke="white" stroke-width="1.5"/>
<defs>
<clipPath id="clip0_219_12439">
<rect x="2" y="2" width="16" height="16" rx="8" fill="white"/>
</clipPath>
</defs>
</svg>
