<svg width="20" height="20" viewBox="0 0 20 20" fill="none" xmlns="http://www.w3.org/2000/svg">
<g clip-path="url(#clip0_219_12971)">
<path d="M2.56846 11.579C2.36885 11.497 2.27354 11.2688 2.35518 11.0692C2.43682 10.8696 2.66534 10.7743 2.86495 10.8559C2.88292 10.8634 3.31104 11.0403 3.77432 11.3243C3.93565 11.4231 4.08135 11.5231 4.21143 11.6239V9.9368C3.89815 8.42665 1.91925 7.02274 1.89893 7.00868C1.72237 6.88485 1.67979 6.64149 1.80323 6.46493C1.92706 6.28836 2.17042 6.245 2.34698 6.36883C2.41065 6.41297 3.44542 7.14579 4.21143 8.18719V5.02547C4.21143 4.80946 4.38643 4.63485 4.60206 4.63485C4.81807 4.63485 4.99268 4.80946 4.99268 5.02547V7.58719C5.52315 6.94969 6.14307 6.46375 6.2544 6.3786C6.4255 6.24774 6.67081 6.28016 6.80206 6.45125C6.93292 6.62274 6.9005 6.86766 6.7294 6.99891C6.28956 7.33641 5.13135 8.37508 4.99268 9.15829V11.6239C5.12315 11.5231 5.26885 11.4231 5.43018 11.3243C5.89307 11.0403 6.32159 10.8634 6.33956 10.8559C6.53917 10.7743 6.76729 10.8696 6.84932 11.0692C6.93096 11.2688 6.83565 11.497 6.63604 11.579C6.04425 11.8223 5.16612 12.3454 4.99268 12.7739V15.1872C6.29186 15.1158 7.86253 14.4753 8.67862 13.486C8.67901 13.486 8.67901 13.4856 8.67901 13.4856C9.49737 12.5449 9.238 11.3282 8.57823 10.4641C8.29425 10.0208 8.04893 9.63797 8.08135 9.18954C8.1078 8.76809 8.49917 8.34786 8.75909 7.9661C9.12667 7.43211 9.26339 6.95282 9.17706 6.50165C9.04073 5.82704 8.50948 5.45125 8.07432 5.08797C7.27745 4.42508 6.75792 3.4118 6.68487 2.37743C6.63135 1.62938 6.46065 0.797349 5.59776 0.298911C4.93885 -0.0946045 4.26569 -0.0942529 3.60635 0.298911C2.74385 0.797349 2.57315 1.62938 2.52003 2.37743C2.44366 3.4661 1.873 4.52094 1.01026 5.1868C-0.113958 5.98094 -0.35302 7.0493 0.637214 8.23172C1.32444 9.02297 1.22096 9.63254 0.626276 10.4641C0.35323 10.8903 0.0438547 11.3731 0.00362029 11.9622C-0.0549735 13.0489 0.71573 13.8884 1.71378 14.4395C2.48839 14.8802 3.34464 15.1298 4.21143 15.1872V12.7739C4.038 12.3434 3.15987 11.8216 2.56846 11.579Z" fill="#079455"/>
<path d="M19.6085 12.0695H18.8313V11.2168C18.8313 11.0011 18.6564 10.8262 18.4407 10.8262C18.225 10.8262 18.05 11.0011 18.05 11.2168V12.0695H11.8437V11.2168C11.8437 11.0011 11.6688 10.8262 11.453 10.8262C11.2373 10.8262 11.0624 11.0011 11.0624 11.2168V12.0695H10.2851C10.0691 12.0695 9.89449 12.2445 9.89449 12.4601V14.023C9.89449 14.2386 10.0691 14.4136 10.2851 14.4136H11.0624V15.1949H10.2851C10.0691 15.1949 9.89449 15.3699 9.89449 15.5855V17.1484C9.89449 17.364 10.0691 17.539 10.2851 17.539H11.0625V19.2125H4.99262V15.1865C4.73238 15.2043 4.47141 15.2043 4.21137 15.1865V19.2125H1.60742C1.39172 19.2125 1.2168 19.3874 1.2168 19.6031C1.2168 19.8189 1.39172 19.9937 1.60742 19.9937H19.093C19.3087 19.9937 19.4836 19.8189 19.4836 19.6031C19.4836 19.3874 19.3087 19.2125 19.093 19.2125H18.8314V17.539H19.6086C19.8246 17.539 19.9992 17.364 19.9992 17.1484V15.5855C19.9992 15.3699 19.8246 15.1949 19.6086 15.1949H18.8313V14.4136H19.6086C19.8246 14.4136 19.9992 14.2386 19.9992 14.023V12.4601C19.9991 12.2445 19.8245 12.0695 19.6085 12.0695ZM18.0501 19.2125H11.8438V17.539H18.0501V19.2125ZM18.05 15.1949H11.8437V14.4136H18.05V15.1949H18.05Z" fill="#079455"/>
</g>
<defs>
<clipPath id="clip0_219_12971">
<rect width="20" height="20" fill="white"/>
</clipPath>
</defs>
</svg>
