<svg width="20" height="20" viewBox="0 0 20 20" fill="none" xmlns="http://www.w3.org/2000/svg">
<path d="M10.0002 1.66602C8.15921 1.66602 6.66683 3.1584 6.66683 4.99935C6.66683 6.55255 7.72914 7.85763 9.16683 8.22767V14.166C9.16683 14.6263 9.53993 14.9993 10.0002 14.9993C10.4604 14.9993 10.8335 14.6263 10.8335 14.166V8.22767C12.2712 7.85763 13.3335 6.55255 13.3335 4.99935C13.3335 3.1584 11.8411 1.66602 10.0002 1.66602Z" fill="#F04438"/>
<path d="M6.8276 11.9622C7.27919 11.8734 7.5733 11.4354 7.48451 10.9838C7.39572 10.5322 6.95765 10.2381 6.50606 10.3268C4.96423 10.63 3.59954 11.1369 2.59717 11.813C1.61321 12.4766 0.833496 13.4116 0.833496 14.5825C0.833496 16.1502 2.20543 17.292 3.76564 17.9941C5.40406 18.7314 7.60904 19.1658 10.0002 19.1658C12.3913 19.1658 14.5963 18.7314 16.2347 17.9941C17.7949 17.292 19.1668 16.1502 19.1668 14.5825C19.1668 13.4116 18.3871 12.4766 17.4032 11.813C16.4008 11.1369 15.0361 10.63 13.4943 10.3268C13.0427 10.2381 12.6046 10.5322 12.5158 10.9838C12.427 11.4354 12.7211 11.8734 13.1727 11.9622C14.5741 12.2377 15.7094 12.6809 16.4712 13.1947C17.2515 13.721 17.5002 14.2156 17.5002 14.5825C17.5002 15.0858 17.0066 15.8191 15.5507 16.4742C14.1731 17.0942 12.2114 17.4992 10.0002 17.4992C7.78891 17.4992 5.82723 17.0942 4.44958 16.4742C2.9937 15.8191 2.50016 15.0858 2.50016 14.5825C2.50016 14.2156 2.74886 13.721 3.52911 13.1947C4.29094 12.6809 5.42625 12.2377 6.8276 11.9622Z" fill="#F04438"/>
</svg>
