<svg width="20" height="20" viewBox="0 0 20 20" fill="none" xmlns="http://www.w3.org/2000/svg">
<path d="M16.875 9.01172C16.481 8.83876 16.0553 8.74963 15.625 8.75H4.375C3.94473 8.74959 3.51907 8.83858 3.125 9.01133C2.56805 9.25489 2.09412 9.65543 1.76113 10.164C1.42815 10.6726 1.25053 11.2671 1.25 11.875V16.25C1.25 16.4158 1.31585 16.5747 1.43306 16.6919C1.55027 16.8092 1.70924 16.875 1.875 16.875C2.04076 16.875 2.19973 16.8092 2.31694 16.6919C2.43415 16.5747 2.5 16.4158 2.5 16.25V15.9375C2.50101 15.8549 2.53426 15.776 2.59265 15.7177C2.65104 15.6593 2.72993 15.626 2.8125 15.625H17.1875C17.2701 15.626 17.349 15.6593 17.4074 15.7177C17.4657 15.776 17.499 15.8549 17.5 15.9375V16.25C17.5 16.4158 17.5658 16.5747 17.6831 16.6919C17.8003 16.8092 17.9592 16.875 18.125 16.875C18.2908 16.875 18.4497 16.8092 18.5669 16.6919C18.6842 16.5747 18.75 16.4158 18.75 16.25V11.875C18.7494 11.2672 18.5717 10.6727 18.2388 10.1642C17.9058 9.65574 17.4319 9.25525 16.875 9.01172Z" fill="#7F56D9"/>
<path d="M14.6875 3.125H5.3125C4.73234 3.125 4.17594 3.35547 3.7657 3.7657C3.35547 4.17594 3.125 4.73234 3.125 5.3125V8.125C3.12502 8.14921 3.13066 8.17309 3.14149 8.19475C3.15231 8.21641 3.16803 8.23525 3.18738 8.2498C3.20674 8.26434 3.22921 8.27419 3.25303 8.27857C3.27684 8.28294 3.30135 8.28172 3.32461 8.275C3.6658 8.17521 4.01951 8.1247 4.375 8.125H4.54023C4.5788 8.12524 4.6161 8.11122 4.64494 8.08562C4.67379 8.06002 4.69215 8.02465 4.69648 7.98633C4.73057 7.68093 4.87596 7.3988 5.10488 7.1938C5.3338 6.9888 5.63021 6.87531 5.9375 6.875H8.125C8.43249 6.87502 8.72919 6.98839 8.95835 7.19341C9.18752 7.39843 9.33308 7.68073 9.36719 7.98633C9.37153 8.02465 9.38988 8.06002 9.41873 8.08562C9.44758 8.11122 9.48487 8.12524 9.52344 8.125H10.4789C10.5175 8.12524 10.5548 8.11122 10.5836 8.08562C10.6125 8.06002 10.6308 8.02465 10.6352 7.98633C10.6692 7.68113 10.8144 7.39916 11.0431 7.19419C11.2718 6.98922 11.5679 6.8756 11.875 6.875H14.0625C14.37 6.87502 14.6667 6.98839 14.8959 7.19341C15.125 7.39843 15.2706 7.68073 15.3047 7.98633C15.309 8.02465 15.3274 8.06002 15.3562 8.08562C15.3851 8.11122 15.4224 8.12524 15.4609 8.125H15.625C15.9805 8.12483 16.3342 8.17547 16.6754 8.27539C16.6987 8.28212 16.7232 8.28333 16.7471 8.27894C16.7709 8.27455 16.7934 8.26466 16.8128 8.25007C16.8321 8.23548 16.8478 8.21659 16.8586 8.19488C16.8694 8.17317 16.875 8.14925 16.875 8.125V5.3125C16.875 4.73234 16.6445 4.17594 16.2343 3.7657C15.8241 3.35547 15.2677 3.125 14.6875 3.125Z" fill="#7F56D9"/>
</svg>
