<svg width="20" height="20" viewBox="0 0 20 20" fill="none" xmlns="http://www.w3.org/2000/svg">
<path d="M9 6.66675C9 2.98501 7.31948 0 5.25 0C3.17974 0 1.5 2.98501 1.5 6.66675C1.5 8.26899 2.51001 9.62651 3.92349 10.1627L3.58325 18.3333C3.58325 19.2538 4.32949 20 5.25 20C6.17051 20 6.91675 19.2538 6.91675 18.3333L6.57651 10.1635C7.99102 9.62651 9 8.26899 9 6.66675Z" fill="#EF6820"/>
<path d="M18.5 6.04175L18.2917 0H17.25L17.0417 6.04175H16.2083L16 0H14.75L14.5417 6.04175H13.7083L13.5 0H12.4583L12.25 6.04175C12.25 7.31274 13.0118 8.40151 14.1022 8.88999L13.7083 18.3333C13.7083 19.2538 14.4545 20 15.375 20C16.2955 20 17.0417 19.2538 17.0417 18.3333L16.6478 8.88999C17.7382 8.40151 18.5 7.31274 18.5 6.04175Z" fill="#EF6820"/>
</svg>
