<svg width="20" height="20" viewBox="0 0 20 20" fill="none" xmlns="http://www.w3.org/2000/svg">
<path d="M7.82936 16.1419L8.3164 17.2373C8.46118 17.5634 8.69747 17.8404 8.99659 18.0349C9.29571 18.2293 9.64483 18.3327 10.0016 18.3327C10.3583 18.3327 10.7075 18.2293 11.0066 18.0349C11.3057 17.8404 11.542 17.5634 11.6868 17.2373L12.1738 16.1419C12.3472 15.7533 12.6388 15.4292 13.0071 15.216C13.3778 15.0022 13.8066 14.9111 14.2321 14.9558L15.4238 15.0827C15.7785 15.1202 16.1365 15.054 16.4544 14.8921C16.7722 14.7302 17.0363 14.4796 17.2145 14.1706C17.393 13.8619 17.4781 13.5079 17.4593 13.1518C17.4406 12.7956 17.3189 12.4525 17.109 12.1642L16.4034 11.1947C16.1522 10.847 16.018 10.4284 16.0201 9.99935C16.02 9.57151 16.1555 9.15464 16.4071 8.80861L17.1127 7.83916C17.3226 7.55081 17.4443 7.20774 17.463 6.85158C17.4818 6.49541 17.3967 6.14147 17.2183 5.83268C17.04 5.52371 16.7759 5.27309 16.4581 5.11121C16.1402 4.94932 15.7822 4.88312 15.4275 4.92065L14.2358 5.0475C13.8103 5.09219 13.3815 5.00112 13.0108 4.78731C12.6418 4.57289 12.3501 4.24715 12.1775 3.85676L11.6868 2.76139C11.542 2.43532 11.3057 2.15828 11.0066 1.96385C10.7075 1.76942 10.3583 1.66596 10.0016 1.66602C9.64483 1.66596 9.29571 1.76942 8.99659 1.96385C8.69747 2.15828 8.46118 2.43532 8.3164 2.76139L7.82936 3.85676C7.6568 4.24715 7.36509 4.57289 6.99603 4.78731C6.62538 5.00112 6.19659 5.09219 5.77103 5.0475L4.57566 4.92065C4.22094 4.88312 3.86294 4.94932 3.54509 5.11121C3.22724 5.27309 2.96317 5.52371 2.78492 5.83268C2.60644 6.14147 2.52141 6.49541 2.54014 6.85158C2.55888 7.20774 2.68058 7.55081 2.89048 7.83916L3.59603 8.80861C3.84765 9.15464 3.98315 9.57151 3.98307 9.99935C3.98315 10.4272 3.84765 10.8441 3.59603 11.1901L2.89048 12.1595C2.68058 12.4479 2.55888 12.791 2.54014 13.1471C2.52141 13.5033 2.60644 13.8572 2.78492 14.166C2.96335 14.4748 3.22744 14.7253 3.54525 14.8872C3.86306 15.049 4.22096 15.1153 4.57566 15.0781L5.76733 14.9512C6.19288 14.9065 6.62167 14.9976 6.99233 15.2114C7.36277 15.4252 7.65583 15.751 7.82936 16.1419Z" stroke="#344054" stroke-width="1.66667" stroke-linecap="round" stroke-linejoin="round"/>
<path d="M10.0001 12.4993C11.3808 12.4993 12.5001 11.3801 12.5001 9.99935C12.5001 8.61864 11.3808 7.49935 10.0001 7.49935C8.61939 7.49935 7.5001 8.61864 7.5001 9.99935C7.5001 11.3801 8.61939 12.4993 10.0001 12.4993Z" stroke="#344054" stroke-width="1.66667" stroke-linecap="round" stroke-linejoin="round"/>
</svg>
